<svg xmlns="http://www.w3.org/2000/svg" width="141" height="66" fill="none"><path fill="#FEFFFE" d="M140.988 54.594c.03.31.03.62 0 .91-.28 2.74-3.201 4.78-5.951 5.69-6.29 2.1-13.459 1.38-19.199-1.93-1 3.25-4.9 4.45-8.22 5.14-8.28 1.69-17.69 3.01-24.5-2-3.18 1.39-6.47 1.7-9.51 1.78-3.27.11-6.57.07-9.77-.59-3.2-.66-6.34-1.99-8.74-4.2-9.31 6.2-41.05 3.67-42.78-.49-2.04-.07-3.71.31-5.41.44-1.7.14-3.5-.01-4.94-.94-.86-.55-1.54-1.43-1.82-2.4-.19-.65-.21-1.33.02-1.97.63-1.82 2.75-2.58 4.63-2.99 1.23-.27 2.54-.47 3.8-.41a4.51 4.51 0 0 1-.48-.72c-.58-1.07-.75-2.31-.77-3.53-.05-3.65 1.36-7.24 3.72-10.02 1.77-2.1 4.08-3.74 6.69-4.6 3.63-1.21 7.69-.85 11.16.74-1.18-4.54-.18-9.67 2.85-13.28 3.48-4.15 9.41-5.99 15.25-4.27.71.21 1.43.47 2.14.79.09-1.01.29-2 .59-2.95 1.75-5.43 6.85-9.64 12.38-11.51 6.26-2.12 13.57-1.73 18.99 2.04 5.42 3.77 8.38 11.18 5.36 18.07 4.21-2.01 9.13-2.69 13.64-1.44 4.49 1.25 8.489 4.52 10.169 8.87.94 2.42 1.061 5.45-.329 8.4 2.98-.54 6.04-.6 9.04-.18 2.67.38 5.35 1.19 7.53 2.73.5.36.979.76 1.419 1.19.83.84 1.52 1.84 1.97 2.96v.01c.8 1.99.821 4.32-.489 6.5 2.28-.45 4.639-.89 6.899-.39 2.26.51 4.421 2.24 4.661 4.55Z"/><path fill="#D6F9FF" d="M140.988 54.594c.03.31.03.62 0 .91-.28 2.74-3.201 4.78-5.951 5.69-6.29 2.1-13.459 1.38-19.199-1.93-1 3.25-4.9 4.45-8.22 5.14-8.28 1.69-17.69 3.01-24.5-2-3.18 1.39-6.47 1.7-9.51 1.78-3.27.11-6.57.07-9.77-.59-3.2-.66-6.34-1.99-8.74-4.2-9.31 6.2-41.05 3.67-42.78-.49-2.04-.07-3.71.31-5.41.44-1.7.14-3.5-.01-4.94-.94-.86-.55-1.54-1.43-1.82-2.4-.19-.65-.21-1.33.02-1.97.63-1.82 2.75-2.58 4.63-2.99 1.23-.27 2.54-.47 3.8-.41a4.51 4.51 0 0 1-.48-.72c-.58-1.07-.75-2.31-.77-3.53-.05-3.65 1.36-7.24 3.72-10.02.04 1.6.6 3.24 1.59 4.5 2.1 2.67 5.53 3.94 8.87 4.54 4.15.74 8.56.64 12.4-1.1 3.84-1.73 7.01-5.28 7.54-9.46 7.48 7.61 21.24 7.67 28.79.13 1.56 6.87 7.33 12.59 14.21 14.09 6.88 1.5 14.52-1.31 18.789-6.91 2.6 5.08 8.43 8.57 14.06 7.65 4.85-.8 8.921-5.25 9.211-10.03.5.36.979.76 1.419 1.19.83.84 1.52 1.84 1.97 2.96v.01c.8 1.99.821 4.32-.489 6.5 2.28-.45 4.639-.89 6.899-.39 2.26.51 4.421 2.24 4.661 4.55Z"/></svg>