<svg xmlns="http://www.w3.org/2000/svg" width="206" height="70" fill="none"><path fill="#FEFFFE" d="M205.52 55.137c-.99 2.79-3.44 4.81-5.96 6.35-10.78 6.56-24.25 6.81-36.76 5.14-3.58-.48-7.44-1.33-10.68-2.94-9.86 5.67-41.91 6.85-55.12 1.36-11.75 4.95-53.27 6.73-67.21.98-.5.24-1.05.42-1.57.57a45.516 45.516 0 0 1-21.82.64c-2.95-.64-6.43-2.33-6.4-5.36.02-1.39.86-2.67 1.95-3.53 1.78-1.4 3.95-1.75 6.21-1.53 0-.21.01-.41.02-.61l.03-.33c.26-2.24 1.58-4.24 3.21-5.8.66-.62 1.37-1.18 2.14-1.67 3.71-2.38 8.51-3.1 12.92-1.68-1.2-5.63.01-11.73 3.09-16.56 1.72-2.71 4.03-5.02 6.82-6.64 7.78-4.51 18.78-2.81 24.39 4.22 1.16-5.4 6.26-9.69 11.78-9.91 5.52-.22 10.94 3.65 13.33 9.92-.86-7.2 2.55-14.53 7.95-19.36 5.41-4.84 12.59-7.36 19.8-8.14 4.57-.5 9.25-.32 13.65.99 6.5 1.95 12.2 6.44 15.6 12.31 2.18 3.75 3.4 8.04 3.44 12.7.61-.55 1.28-1.04 2.01-1.44 3.32-1.83 7.35-1.72 11.12-1.33 4.66.48 9.47 1.39 13.24 4.16 3.77 2.78 6.19 7.89 4.54 12.28a34.366 34.366 0 0 1 16.56.25c2.68.71 5.32 1.8 7.5 3.48.63.48 1.22 1.01 1.76 1.6 2.41 2.63 3.65 6.52 2.46 9.88Z"/><path fill="#D6F9FF" d="M205.52 55.137c-.99 2.79-3.44 4.81-5.96 6.35-10.78 6.56-24.25 6.81-36.76 5.14-3.58-.48-7.44-1.33-10.68-2.94-9.86 5.67-41.91 6.85-55.12 1.36-11.75 4.95-53.27 6.73-67.21.98-.5.24-1.05.42-1.57.57a45.516 45.516 0 0 1-21.82.64c-2.95-.64-6.43-2.33-6.4-5.36.02-1.39.86-2.67 1.95-3.53 1.78-1.4 3.95-1.75 6.21-1.53 0-.21.01-.41.02-.61l.03-.33c.26-2.24 1.58-4.24 3.21-5.8.66-.62 1.37-1.18 2.14-1.67.09.9.47 1.8 1.04 2.51 1.05 1.31 2.64 2.08 4.24 2.61 7.49 2.43 16.35-.24 21.24-6.41 7.78 5.71 19.53 5.17 26.75-1.23 2.61 4.41 7.7 6.68 12.62 8.14 5.65 1.68 11.66 2.66 17.45 1.54 5.79-1.13 11.34-4.62 14.14-10.5 4.83 4.44 11.69 6.57 18.19 5.66 6.49-.91 12.5-4.86 15.92-10.46 3.12 7.57 11.78 11.09 19.75 12.98 8.04 1.91 16.53 2.94 24.53.89 5.41-1.39 11.05-5.21 11.87-10.48.63.48 1.22 1.01 1.76 1.6 2.41 2.63 3.65 6.52 2.46 9.88ZM74.956 38.31c1.953 2.985 6.318 4.073 9.443 2.355 1.883 2.144 4.985 3.137 7.763 2.483 2.778-.653 5.112-2.924 5.842-5.683-.74 1.235-2.169 1.9-3.578 2.2-3.929.835-8.278-.837-10.636-4.089-1.76 2.662-5.397 3.91-8.834 2.734Z"/></svg>