<svg xmlns="http://www.w3.org/2000/svg" width="307" height="98" fill="none"><g clip-path="url(#a)"><g filter="url(#b)"><path fill="#FEFFFE" d="M317.127 65.11c-5.037 6.574-12.128 6.71-23.326 5.703-1.82 3.72-5.244 6.496-9.015 8.217-3.772 1.72-7.906 2.486-12.012 3.063-7.044.969-14.287 1.39-21.319.559-3.035 4.062-8.575 6.222-13.678 5.448-2.567-.383-4.977-1.42-7.089-2.936-17.959 9.88-46.278 3.524-63.504-4.67-2.312 2.259-5.116 4.049-7.998 5.555-13.643 7.05-30.359 7.874-44.623 2.189-4.413-1.758-8.725-4.302-12.166-7.592-5.91 4.407-13.4 6.77-20.819 7.575-16.555 1.81-33.765-3.541-46.38-14.424-2.623-2.257-5.158-4.94-5.903-8.322-.034-.161-.057-.332-.09-.494a92.268 92.268 0 0 1-18.982-3.091c-3.227-.88-7-2.632-7.217-5.983a4.458 4.458 0 0 1 .436-2.154c.47-1.002 1.285-1.86 2.251-2.472a6.674 6.674 0 0 1 1.38-.705c2.234-.831 4.72-.682 7.095-.517-.849-3.557 1.224-7.337 4.221-9.46 1.216-.871 2.563-1.518 3.982-1.982 2.05-.72 4.237-1.082 6.39-1.346 6.344-.747 13.358-.457 18.258 3.652 4.252-10.99 12.96-17.736 22.367-19.012 9.41-1.275 19.133 2.556 25.902 9.222 1.107 1.105 2.16 2.298 3.07 3.585.87-.496 1.777-.93 2.714-1.313 6.511-2.642 14.512-2.262 19.97 2.149 3.237 2.63 5.282 6.316 6.887 10.213.288.312-3.043-22.01 18.195-30.548 9.144-3.678 19.801-2.371 28.245 2.69 7.348-8.323 17.705-13.804 28.642-14.758 16.3-1.42 33.064 7.306 41.245 21.484 2.918-1.905 6.931-1.634 10.235.079 3.294 1.713 5.821 4.846 6.809 8.429 5.652-4.948 13.561-5.022 19.567-1.54a18.464 18.464 0 0 1 3.718 2.87c3.813 3.756 6.091 9.102 5.927 14.469 5.606-4.54 13.933-5.298 20.317-2.03.471.239.941.498 1.39.786 1.572.994 3.002 2.252 4.135 3.708.943 1.209 1.699 2.56 2.171 4.02 1.062 3.227.651 6.984-1.398 9.684Z"/><path stroke="#000" stroke-width="2" d="M317.143 50.792c-1.209-1.555-2.727-2.887-4.385-3.937a16.874 16.874 0 0 0-1.476-.835c-6.148-3.146-13.988-2.755-19.812.996-.36-4.977-2.644-9.768-6.18-13.252a19.46 19.46 0 0 0-3.918-3.025l-.003-.001c-5.928-3.437-13.67-3.61-19.576.727-1.277-3.25-3.739-6.026-6.841-7.639h-.001c-3.203-1.661-7.155-2.113-10.336-.545C236.07 9.271 219.281.729 202.924 2.154l.087.997-.087-.997c-10.937.955-21.285 6.321-28.754 14.48-8.565-4.857-19.21-6.047-28.419-2.343-10.969 4.41-15.621 12.414-17.543 19.25-.828 2.944-1.15 5.67-1.262 7.801-1.352-2.464-3.034-4.744-5.273-6.564l-.002-.002c-5.806-4.692-14.212-5.042-20.975-2.298l-.002.001c-.697.285-1.38.598-2.048.944a30.064 30.064 0 0 0-2.651-2.998l-.005-.005c-6.957-6.851-16.98-10.823-26.738-9.5-9.445 1.28-18.133 7.84-22.665 18.413-5.143-3.596-11.977-3.758-17.944-3.055h-.005c-2.169.266-4.438.639-6.588 1.392-1.497.49-2.935 1.179-4.241 2.115-2.869 2.033-5.069 5.562-4.814 9.196-2.025-.111-4.228-.102-6.271.657l-.007.003a7.684 7.684 0 0 0-1.572.803c-1.094.697-2.046 1.687-2.607 2.882a5.458 5.458 0 0 0-.53 2.634v.011c.135 2.085 1.384 3.603 2.902 4.672 1.51 1.062 3.387 1.758 5.05 2.212a93.26 93.26 0 0 0 18.415 3.077c.884 3.606 3.585 6.398 6.17 8.623 12.826 11.063 30.311 16.5 47.142 14.66 7.265-.789 14.653-3.051 20.631-7.277 3.442 3.12 7.624 5.535 11.875 7.229 14.533 5.792 31.552 4.954 45.452-2.23l.004-.002c2.726-1.424 5.425-3.12 7.728-5.245 8.623 4.018 19.844 7.55 31.165 8.91 11.35 1.363 22.925.557 32.08-4.265 2.104 1.406 4.478 2.376 7.006 2.754 5.255.796 10.942-1.307 14.27-5.38 6.969.757 14.106.325 21.012-.626h.003c4.122-.58 8.377-1.359 12.288-3.144l-.415-.91.415.91c3.711-1.693 7.168-4.4 9.179-8.071 5.3.461 9.785.648 13.583-.081 4.019-.772 7.276-2.57 9.958-6.07l.003-.003.601-10.288.952-.308-.002-.005c-.512-1.583-1.328-3.034-2.332-4.321Zm0 0-.789.614.789-.615Zm-26.631-1.85c.327-.265.663-.517 1.007-.756l-1.013-.504c.017.42.019.84.006 1.26Z"/></g><path fill="#D6F9FF" d="M317.127 65.11c-5.037 6.573-12.128 6.71-23.326 5.703-1.82 3.72-5.244 6.495-9.015 8.216-3.772 1.722-7.906 2.487-12.012 3.064-7.044.968-14.287 1.39-21.319.558-3.035 4.063-8.575 6.223-13.678 5.449-2.567-.383-4.977-1.42-7.089-2.936-17.959 9.88-46.278 3.523-63.504-4.67-2.312 2.258-5.116 4.049-7.998 5.555-13.643 7.05-30.359 7.873-44.623 2.188-4.413-1.757-8.725-4.301-12.166-7.591-5.91 4.406-13.4 6.77-20.819 7.575-16.555 1.81-33.765-3.541-46.38-14.425-2.623-2.257-5.158-4.94-5.903-8.322-.034-.16-.057-.332-.09-.493a92.268 92.268 0 0 1-18.982-3.091c-3.227-.88-7-2.633-7.217-5.983a4.458 4.458 0 0 1 .436-2.154c.47-1.002 1.285-1.86 2.251-2.472 1.42 2.309 4.653 3.258 7.486 3.752 6.181 1.087 12.751 1.73 18.363-.458a57.566 57.566 0 0 0 19.248 9.186c3.942 1.038 8.04 1.652 12.092 1.184 4.041-.458 8.05-2.08 10.905-4.667 4.226 5.453 11.328 7.798 18.14 8.881 5.042.802 10.225 1.07 15.229.088 5.013-.98 9.859-3.288 13.714-7.078 8.42 3.92 18.032 5.826 27.108 3.837 9.076-1.98 17.444-8.26 19.846-17.532 5.793 3.055 11.969 5.784 18.511 6.105 6.543.312 13.571-2.25 16.794-8.517 7.349 6.68 16.033 12.27 25.787 14.111 9.754 1.852 20.669-.575 27.694-8.06 8.355 5.548 18.17 8.873 28.171 9.563 5.659.386 11.533-.099 16.59-2.67 4.75-2.401 8.642-6.89 9.46-12.092.471.24.941.498 1.39.786 1.572.994 3.002 2.252 4.135 3.708.943 1.21 1.699 2.56 2.171 4.02 1.06 3.225.649 6.982-1.4 9.681Z"/></g><defs><clipPath id="a"><path fill="#fff" d="M0 0h307v98H0z"/></clipPath><filter id="b" width="320.091" height="96.986" x="1" y="1" color-interpolation-filters="sRGB" filterUnits="userSpaceOnUse"><feFlood flood-opacity="0" result="BackgroundImageFix"/><feColorMatrix in="SourceAlpha" result="hardAlpha" values="0 0 0 0 0 0 0 0 0 0 0 0 0 0 0 0 0 0 127 0"/><feOffset dy="4"/><feComposite in2="hardAlpha" operator="out"/><feColorMatrix values="0 0 0 0 0 0 0 0 0 0 0 0 0 0 0 0 0 0 1 0"/><feBlend in2="BackgroundImageFix" result="effect1_dropShadow_101_15"/><feBlend in="SourceGraphic" in2="effect1_dropShadow_101_15" result="shape"/></filter></defs></svg>