<svg xmlns="http://www.w3.org/2000/svg" width="117" height="53" fill="none"><path fill="#FEFFFE" d="M116.496 38.536c-.5 4.18-4.62 6.63-8.35 8.01-7.16 2.64-15.28 3.75-22.52.25-25.62 8.5-44.91 4.89-53.85 2.14-8.18 2.14-16.89 1.94-24.96-.63-1.74-.55-3.5-1.24-4.78-2.6-1.29-1.37-1.95-3.56-1.14-5.28.05-.1.09-.19.15-.28.97-1.67 3.07-2.25 4.94-2.16.25.01.49.03.74.06.29-2.7 2.37-4.89 4.73-5.97 2.38-1.06 5.02-1.19 7.61-1.33-.18-1.6-.16-3.25.1-4.87v-.01c.47-2.77 1.63-5.37 3.63-7.21 3.13-2.87 8.52-3.03 11.17.37.1-3.39 2.58-6.53 5.7-7.21 3.11-.69 6.56 1.17 7.78 5.31 1.04-7.25 5.72-14.19 12.36-16.1 6.65-1.92 14.73 2.56 15.87 9.81 6.21-2.6 13.47-3.28 19.43-.09 3.05 1.64 5.58 4.45 7.06 7.71 1.4 3.14 1.85 6.67.81 9.99 3.1.2 6.28.51 9.02 2.08 1.48.85 2.78 2.16 3.61 3.7.47.88.79 1.83.89 2.81.06.48.06.99 0 1.5Z"/><path fill="#D6F9FF" d="M116.496 38.536c-.5 4.18-4.62 6.63-8.35 8.01-7.16 2.64-15.28 3.75-22.52.25-25.62 8.5-44.91 4.89-53.85 2.14-8.18 2.14-16.89 1.94-24.96-.63-1.74-.55-3.5-1.24-4.78-2.6-1.29-1.37-1.95-3.56-1.14-5.28.05-.1.09-.19.15-.28 3.28 2.85 7.83 4.23 12.13 3.6 5.02-.75 9.55-4.22 11.58-8.88 4.65 3.82 10.97 5.54 16.91 4.6 5.94-.93 11.42-4.51 14.68-9.57 1.8 5.36 8.31 7.26 13.91 8.05 4.34.6 8.8 1 13.06-.01 4.26-1.02 8.34-3.69 10.03-7.73 2.62 3.75 6.43 6.84 10.91 7.74 4.11.83 8.75-.5 11.35-3.72.47.88.79 1.83.89 2.81.06.48.06.99 0 1.5Z"/></svg>