<svg xmlns="http://www.w3.org/2000/svg" width="1478" height="960" fill="none"><g clip-path="url(#a)"><path fill="#fff" d="M0 872.955V0h1478.35v897.008c-.69 26.585-22.44 47.929-49.18 47.929a48.954 48.954 0 0 1-21.95-5.169 16.38 16.38 0 0 1-12.32 5.567c-8.36 0-15.25-6.252-16.27-14.334a25.356 25.356 0 0 1-10.27 2.166c-14.04 0-25.42-11.38-25.42-25.417 0-3.313.65-6.594 1.91-9.657-13.83-3.366-24.51-14.726-26.89-28.911a31.38 31.38 0 0 1-14.96 3.773c-8.12 0-15.51-3.072-21.1-8.115.13 1.309.2 2.636.2 3.979 0 11.379-4.78 21.636-12.43 28.894a30.855 30.855 0 0 1 3.25 13.797c0 17.078-13.85 30.923-30.93 30.923-1.6 0-3.21-.124-4.79-.371-8.73 7.933-20.32 12.771-33.04 12.771-16.43 0-30.97-8.073-39.89-20.459-3.33 10.452-13.12 18.025-24.68 18.025-13.83 0-25.12-10.844-25.85-24.494-18.78-.56-34.02-15.19-35.53-33.712a56.813 56.813 0 0 1-14.62 1.913c-30.17 0-54.83-23.575-56.57-53.307a40.014 40.014 0 0 1-15.672 3.176 40.045 40.045 0 0 1-15.465-3.087c-10.04 15.881-27.744 26.44-47.922 26.44-17.252 0-32.691-7.716-43.086-19.875-9.761 17.076-28.138 28.592-49.218 28.592-29.473 0-53.68-22.498-56.405-51.258-2.123.34-4.3.523-6.521.523-12.159 0-23.072-5.308-30.561-13.73a41.097 41.097 0 0 1-10.343 1.319 40.731 40.731 0 0 1-18.077-4.202c-9.74 17.171-28.186 28.738-49.324 28.738-15.875 0-30.221-6.524-40.502-17.042a56.67 56.67 0 0 1-7.686-9.814c-4.249 1.516-8.819 2.32-13.591 2.32-15.574 0-29.121-8.709-36.026-21.529a21.95 21.95 0 0 1-10.587 2.703c-7.717 0-14.498-3.964-18.443-9.959a42.995 42.995 0 0 1-18.994 4.395 43.048 43.048 0 0 1-26.064-8.735c-4.46 17.752-20.513 30.89-39.654 30.89a40.64 40.64 0 0 1-28.383-11.478c-8.41 18.8-26.765 32.164-48.357 33.439-8.694 32.552-38.375 56.533-73.667 56.533-19.547 0-37.368-7.361-50.863-19.458-7.436 7.676-17.841 12.451-29.371 12.451-11.019 0-21.011-4.365-28.365-11.449-5.114 4.731-11.932 7.648-19.447 7.662a49.838 49.838 0 0 1 1.245 11.04 50.199 50.199 0 0 1-.325 5.604c-.684 26.585-22.432 47.929-49.181 47.929a48.969 48.969 0 0 1-21.949-5.169c-3.008 3.412-7.407 5.567-12.313 5.567-8.36 0-15.255-6.252-16.277-14.334a25.326 25.326 0 0 1-10.266 2.166c-14.037 0-25.416-11.38-25.416-25.417a25.334 25.334 0 0 1 1.904-9.657c-13.824-3.366-24.511-14.726-26.891-28.911A31.342 31.342 0 0 1 0 872.955Z"/><path stroke="#000" stroke-width="5" d="M-3 771v102.048a31.56 31.56 0 0 0 15.014-3.776c2.389 14.197 13.117 25.567 26.994 28.936a25.305 25.305 0 0 0-1.912 9.666c0 14.05 11.424 25.44 25.514 25.44 3.55.003 7.06-.736 10.305-2.168 1.026 8.09 7.948 14.347 16.34 14.347 4.924 0 9.34-2.157 12.36-5.572a49.259 49.259 0 0 0 22.033 5.174c26.851 0 48.682-21.364 49.368-47.972.214-1.863.323-3.735.327-5.61 0-3.799-.44-7.493-1.25-11.05 7.544-.014 14.388-2.933 19.521-7.669 7.383 7.09 17.413 11.46 28.474 11.46 11.575 0 22.019-4.779 29.483-12.462 13.547 12.107 31.437 19.476 51.058 19.476 35.427 0 65.221-24.004 73.949-56.585 21.674-1.276 40.099-14.653 48.542-33.47 7.376 7.127 17.423 11.489 28.492 11.489 19.213 0 35.327-13.15 39.805-30.918a43.293 43.293 0 0 0 26.163 8.743 43.283 43.283 0 0 0 19.067-4.399c3.961 6 10.767 9.968 18.513 9.968a22.079 22.079 0 0 0 10.628-2.706c6.932 12.832 20.53 21.549 36.164 21.549 4.79 0 9.378-.805 13.642-2.322a56.808 56.808 0 0 0 7.716 9.822c10.32 10.528 24.722 17.058 40.657 17.058 21.219 0 39.736-11.577 49.513-28.764a40.977 40.977 0 0 0 18.146 4.206c3.587 0 7.067-.462 10.382-1.32 7.519 8.429 18.473 13.742 30.678 13.742 2.23 0 4.415-.183 6.546-.523 2.736 28.786 27.036 51.304 56.621 51.304 21.161 0 39.608-11.526 49.407-28.618 10.434 12.17 25.932 19.893 43.25 19.893 20.255 0 38.027-10.568 48.105-26.464a40.304 40.304 0 0 0 15.525 3.09c5.581 0 10.9-1.134 15.73-3.179 1.75 29.759 26.5 53.356 56.79 53.356 5.07 0 9.99-.672 14.67-1.916 1.52 18.54 16.82 33.183 35.67 33.744.73 13.662 12.07 24.515 25.95 24.515 11.6 0 21.43-7.579 24.77-18.041 8.96 12.398 23.55 20.478 40.04 20.478 12.78 0 24.41-4.843 33.17-12.783 1.59.248 3.2.372 4.81.372 17.15 0 31.05-13.857 31.05-30.951 0-4.964-1.18-9.652-3.27-13.81 7.69-7.265 12.48-17.531 12.48-28.921 0-1.344-.06-2.672-.2-3.982a31.569 31.569 0 0 0 21.18 8.123 31.558 31.558 0 0 0 15.02-3.776c2.39 14.197 13.11 25.567 26.99 28.936a25.44 25.44 0 0 0-1.91 9.666c0 14.05 11.42 25.44 25.51 25.44 3.55.003 7.06-.736 10.31-2.168 1.03 8.09 7.95 14.347 16.34 14.347 4.92 0 9.34-2.157 12.36-5.572a49.24 49.24 0 0 0 22.03 5.174c26.85 0 48.68-21.364 49.37-47.972"/><path fill="#D7F8FE" d="M390 496 94 452l-199-91 9-437.5L1505-83l-28.5 727.5-424-165-245-118.5-285 36L390 496Z"/><circle cx="142" cy="417" r="255" fill="#D7F8FE"/><circle cx="78" cy="78" r="78" fill="#D7F8FE" transform="matrix(-1 0 0 1 502 417)"/><circle cx="111" cy="111" r="111" fill="#D7F8FE" transform="matrix(-1 0 0 1 1309 394)"/><circle cx="174" cy="174" r="174" fill="#D7F8FE" transform="matrix(-1 0 0 1 1151 209)"/><circle cx="92" cy="92" r="92" fill="#D7F8FE" transform="matrix(-1 0 0 1 864 270)"/><circle cx="111" cy="111" r="111" fill="#D7F8FE" transform="matrix(-1 0 0 1 1599 573)"/><circle cx="64" cy="64" r="64" fill="#D7F8FE" transform="matrix(-1 0 0 1 1360 519)"/><circle cx="35" cy="35" r="35" fill="#D7F8FE" transform="matrix(-1 0 0 1 1408 585)"/><circle cx="152" cy="152" r="152" fill="#D7F8FE" transform="matrix(-1 0 0 1 701 200)"/><circle cx="71" cy="71" r="71" fill="#D7F8FE" transform="matrix(-1 0 0 1 772 281)"/><circle cx="38.5" cy="38.5" r="38.5" fill="#D7F8FE" transform="matrix(-1 0 0 1 803 296)"/><circle cx="38.5" cy="38.5" r="38.5" fill="#D7F8FE" transform="matrix(-1 0 0 1 714 399)"/><circle cx="37.5" cy="37.5" r="37.5" fill="#D7F8FE" transform="matrix(-1 0 0 1 301 597)"/><circle cx="76.5" cy="76.5" r="76.5" fill="#D7F8FE" transform="matrix(-1 0 0 1 106 583)"/></g><defs><clipPath id="a"><path fill="#fff" d="M0 0h1478v960H0z"/></clipPath></defs></svg>