<svg xmlns="http://www.w3.org/2000/svg" width="77" height="40" fill="none"><path fill="#FEFFFE" d="M76.518 28.233c-.73 3.42-3.92 5.88-7.3 6.8-3.37.91-6.94.58-10.75.35-7.94 5.84-32.12 5.67-39.08-2.35-4.13.2-8.28.15-12.4-.16-2.77-.21-6.11-1-6.86-3.67-.16-.59-.17-1.2-.03-1.79.17-.85.62-1.66 1.23-2.3.09-.1.2-.2.3-.29 1.21-1.09 2.83-1.63 4.43-1.9 1.46-.26 3.17-.24 4.18.84.06-.89.21-1.78.43-2.65 1.01-4.1 3.67-7.82 7.53-9.47 4.67-1.99 10.91-.17 13.24 4.59-.8-3.56.4-7.42 2.75-10.22 2.35-2.79 5.75-4.59 9.3-5.45 4.98-1.21 10.59-.53 14.62 2.64 1.75 1.38 3.11 3.29 3.95 5.46 1.08 2.81 1.29 6.06.33 9.2 3.4-.67 7.11-.36 10.03 1.51 1.78 1.14 3.19 2.92 3.84 4.91.04.11.07.22.1.33.35 1.17.43 2.41.16 3.62Z"/><path fill="#D6F9FF" d="M76.518 28.233c-.73 3.42-3.92 5.88-7.3 6.8-3.37.91-6.94.58-10.75.35-7.94 5.84-32.12 5.67-39.08-2.35-4.13.2-8.28.15-12.4-.16-2.77-.21-6.11-1-6.86-3.67-.16-.59-.17-1.2-.03-1.79.17-.85.62-1.66 1.23-2.3 1.69 2.02 4.86 2.4 7.61 2.49 4.01.14 8.37.1 11.58-2.31 5.03 4.71 13.71 4.76 18.63-.03 5.28 4.73 14.44 4.13 19.05-1.25 1.72 3.85 6.03 6.36 10.23 5.95 3.31-.32 6.34-2.45 7.93-5.35.35 1.17.43 2.41.16 3.62Z"/></svg>